<svg width="500" height="500" viewBox="0 0 500 500" fill="none" xmlns="http://www.w3.org/2000/svg">
<rect width="500" height="500" fill="white"/>
<path d="M221.453 364.244C224.234 372.837 230.784 379.733 239.155 382.979L265.586 401.579L255.936 456.52C255.683 457.954 254.438 459 252.981 459H246.069C244.591 459 243.333 457.922 243.105 456.461L234.566 401.517C219.989 396.682 208.447 385.19 203.55 370.642L148.488 360.938C147.054 360.685 146.008 359.438 146.009 357.981L146.013 351.069C146.014 349.591 147.092 348.333 148.554 348.106L201.988 339.832L221.453 364.244ZM254.431 251C255.909 251 257.167 252.078 257.395 253.539L265.96 308.66C280.503 313.668 291.946 325.329 296.659 340.007L351.532 349.678C352.967 349.931 354.012 351.177 354.012 352.634L354.008 359.545C354.007 361.024 352.928 362.282 351.467 362.508L296.308 371.048C296.292 371.092 296.275 371.136 296.26 371.181L279.309 348.578C277.102 338.46 269.792 330.25 260.209 326.782L234.956 308.163L244.564 253.48C244.817 252.046 246.062 251 247.519 251H254.431Z" fill="url(#paint0_linear_35_2)"/>
<path d="M332.81 434.583L256.388 384.315C268.148 381.765 277.337 372.32 279.509 360.423L332.81 434.583Z" fill="#5091CE"/>
<path d="M243.131 325.791C231.595 328.493 222.623 337.852 220.486 349.596L167.737 276.19L243.131 325.791Z" fill="#E85454"/>
<path d="M275 355C275 368.807 263.807 380 250 380C236.193 380 225 368.807 225 355C225 341.193 236.193 330 250 330C263.807 330 275 341.193 275 355Z" fill="#ACACAC"/>
<path d="M228 25.5C228.049 25.5383 268.355 57.0709 288.5 82.5C312.372 112.635 323.206 132.574 335.5 169C340.087 182.592 345.495 202.982 345.5 203C345.518 202.975 356.563 187.827 359 175.5C361.776 161.459 355.506 139.022 355.5 139C355.528 139.039 382.657 177.458 389 206C394.676 231.542 395.65 247.694 389 273C384.227 291.163 377.142 302.264 365.5 317C358.299 326.115 348.555 332.488 340.608 336.583L304.663 330.248C301.227 322.669 296.265 315.935 290.167 310.436C292.59 305.477 295.377 298.87 297 292C299.649 280.788 300.427 275.18 297 262.5C292 244 291.486 240 276 220.5C266.218 208.182 248.029 191.527 248 191.5C247.985 191.514 226.944 210.559 217 225C206.265 240.589 199.933 251.627 198.5 270.5C197.863 278.884 197.806 284.694 197.864 288.044L170.5 272L154.5 261.5L164.5 279L179.114 302.049L195.233 329.747L159.881 335.221C148.74 328.552 132.235 316.062 125 297.5C113.469 267.917 114.082 248.815 125 219C142.726 170.591 168.5 155.5 200 114.5C215.119 94.8208 233.921 75.31 234.5 50.5C234.81 37.2082 228.013 25.522 228 25.5Z" fill="url(#paint1_linear_35_2)"/>
<path d="M228 25.5C228.049 25.5383 268.355 57.0709 288.5 82.5C312.372 112.635 323.206 132.574 335.5 169C340.087 182.592 345.495 202.982 345.5 203C345.518 202.975 356.563 187.827 359 175.5C361.776 161.459 355.506 139.022 355.5 139C355.528 139.039 382.657 177.458 389 206C394.676 231.542 395.65 247.694 389 273C384.227 291.163 377.142 302.264 365.5 317C358.299 326.115 348.555 332.488 340.608 336.583L304.663 330.248C301.227 322.669 296.265 315.935 290.167 310.436C292.59 305.477 295.377 298.87 297 292C299.649 280.788 300.427 275.18 297 262.5C292 244 291.486 240 276 220.5C266.218 208.182 248.029 191.527 248 191.5C247.985 191.514 226.944 210.559 217 225C206.265 240.589 199.933 251.627 198.5 270.5C197.863 278.884 197.806 284.694 197.864 288.044L170.5 272L154.5 261.5L164.5 279L179.114 302.049L195.233 329.747L159.881 335.221C148.74 328.552 132.235 316.062 125 297.5C113.469 267.917 114.082 248.815 125 219C142.726 170.591 168.5 155.5 200 114.5C215.119 94.8208 233.921 75.31 234.5 50.5C234.81 37.2082 228.013 25.522 228 25.5Z" fill="white" fill-opacity="0.28"/>
<defs>
<linearGradient id="paint0_linear_35_2" x1="146" y1="251" x2="531.5" y2="588.5" gradientUnits="userSpaceOnUse">
<stop stop-color="#ACACAC"/>
<stop offset="1" stop-color="#002755"/>
</linearGradient>
<linearGradient id="paint1_linear_35_2" x1="249.75" y1="25.5" x2="249.75" y2="336.583" gradientUnits="userSpaceOnUse">
<stop stop-color="#00BBFF"/>
<stop offset="1" stop-color="#001772"/>
</linearGradient>
</defs>
</svg>
